<svg xmlns="http://www.w3.org/2000/svg" xmlns:xlink="http://www.w3.org/1999/xlink" width="24px" height="24px" viewBox="0 0 24 24" version="1.1">
    <title>00 QWER/opgg favicon white</title>
    <g id="00-QWER/opgg-favicon-white" stroke="none" stroke-width="1" fill="none" fill-rule="evenodd">
        <g id="QWER.GG" transform="translate(4.000000, 4.000000)" fill="#FFFFFF">
            <path d="M16,7.97207583 C16,3.46040654 12.4175824,0 8,0 C3.58241758,0 0,3.46040654 0,7.97207583 C0,12.4837451 3.58241758,15.9441517 8,15.9441517 C9.2967033,15.9441517 10.5274725,15.6375334 11.6043956,15.111902 L13.2527473,16.8421053 L15.7802198,14.6081719 L14.2417582,12.9874752 C15.3406593,11.6295941 16,9.89939087 16,7.97207583 Z M8,12.5275477 C5.49450549,12.5275477 3.51648352,10.7097392 3.51648352,7.97207583 C3.51648352,5.23441243 5.49450549,3.41660393 8,3.41660393 C10.5054945,3.41660393 12.4835165,5.23441243 12.4835165,7.97207583 C12.4835165,8.91383204 12.2417582,9.74608172 11.8461538,10.4469236 L9.38461538,7.84066799 L6.85714286,10.0746013 L9.07692308,12.4180412 C8.72527473,12.4837451 8.37362637,12.5275477 8,12.5275477 Z" id="Q"/>
        </g>
    </g>
</svg>